{
  "accessors": [
    {
      "bufferView": 2,
      "componentType": 5126,
      "count": 46992,
      "max": [
        18.896018981933594,
        15.379941940307617,
        77.73008728027344
      ],
      "min": [
        -26.377212524414063,
        -15.576501846313477,
        -0.09395100176334381
      ],
      "type": "VEC3"
    },
    {
      "bufferView": 2,
      "byteOffset": 563904,
      "componentType": 5126,
      "count": 46992,
      "max": [
        0.999998927116394,
        1.0,
        1.0
      ],
      "min": [
        -0.9999802112579346,
        -1.0,
        -0.9998881816864014
      ],
      "type": "VEC3"
    },
    {
      "bufferView": 1,
      "componentType": 5126,
      "count": 46992,
      "max": [
        1.0,
        1.0
      ],
      "min": [
        0.0,
        0.0
      ],
      "type": "VEC2"
    },
    {
      "bufferView": 0,
      "componentType": 5125,
      "count": 243228,
      "type": "SCALAR"
    },
    {
      "bufferView": 2,
      "byteOffset": 1127808,
      "componentType": 5126,
      "count": 58355,
      "max": [
        31.505430221557617,
        17.45931053161621,
        101.00961303710938
      ],
      "min": [
        -5.09689998626709,
        -17.441286087036133,
        17.701820373535156
      ],
      "type": "VEC3"
    },
    {
      "bufferView": 2,
      "byteOffset": 1828068,
      "componentType": 5126,
      "count": 58355,
      "max": [
        0.9999971389770508,
        1.0,
        0.9999994039535522
      ],
      "min": [
        -0.99998939037323,
        -1.0,
        -0.999828040599823
      ],
      "type": "VEC3"
    },
    {
      "bufferView": 1,
      "byteOffset": 375936,
      "componentType": 5126,
      "count": 58355,
      "max": [
        1.0,
        0.9823020100593567
      ],
      "min": [
        0.0,
        0.0
      ],
      "type": "VEC2"
    },
    {
      "bufferView": 0,
      "byteOffset": 972912,
      "componentType": 5125,
      "count": 318066,
      "type": "SCALAR"
    },
    {
      "bufferView": 2,
      "byteOffset": 2528328,
      "componentType": 5126,
      "count": 4400,
      "max": [
        38.8182258605957,
        18.58927345275879,
        20.073951721191406
      ],
      "min": [
        1.597993016242981,
        -18.630962371826172,
        -0.1785230040550232
      ],
      "type": "VEC3"
    },
    {
      "bufferView": 2,
      "byteOffset": 2581128,
      "componentType": 5126,
      "count": 4400,
      "max": [
        0.9998099207878113,
        0.9996899962425232,
        0.8862422704696655
      ],
      "min": [
        -0.9999946355819702,
        -0.9996899962425232,
        -0.9993959665298462
      ],
      "type": "VEC3"
    },
    {
      "bufferView": 1,
      "byteOffset": 842776,
      "componentType": 5126,
      "count": 4400,
      "max": [
        0.9879019856452942,
        1.0
      ],
      "min": [
        0.0,
        0.0
      ],
      "type": "VEC2"
    },
    {
      "bufferView": 0,
      "byteOffset": 2245176,
      "componentType": 5125,
      "count": 22770,
      "type": "SCALAR"
    }
  ],
  "asset": {
    "extras": {
      "author": "chromeball (https://sketchfab.com/chromeball)",
      "license": "CC-BY-4.0 (http://creativecommons.org/licenses/by/4.0/)",
      "source": "https://sketchfab.com/3d-models/symbol-of-love-91d1f7e940854c1fa3f95ac59d413745",
      "title": "Symbol of Love"
    },
    "generator": "Sketchfab-12.67.0",
    "version": "2.0"
  },
  "bufferViews": [
    {
      "buffer": 0,
      "byteLength": 2336256,
      "name": "floatBufferViews",
      "target": 34963
    },
    {
      "buffer": 0,
      "byteLength": 877976,
      "byteOffset": 2336256,
      "byteStride": 8,
      "name": "floatBufferViews",
      "target": 34962
    },
    {
      "buffer": 0,
      "byteLength": 2633928,
      "byteOffset": 3214232,
      "byteStride": 12,
      "name": "floatBufferViews",
      "target": 34962
    }
  ],
  "buffers": [
    {
      "byteLength": 5848160,
      "uri": "scene.bin"
    }
  ],
  "extensionsRequired": [
    "KHR_materials_pbrSpecularGlossiness"
  ],
  "extensionsUsed": [
    "KHR_materials_pbrSpecularGlossiness"
  ],
  "materials": [
    {
      "doubleSided": true,
      "extensions": {
        "KHR_materials_pbrSpecularGlossiness": {
          "diffuseFactor": [
            0.0,
            0.0,
            0.0,
            1.0
          ],
          "glossinessFactor": 0.9773246951219512,
          "specularFactor": [
            0.0078125,
            0.0078125,
            0.0078125
          ]
        }
      },
      "name": "king"
    },
    {
      "doubleSided": true,
      "extensions": {
        "KHR_materials_pbrSpecularGlossiness": {
          "diffuseFactor": [
            0.7639100609756098,
            0.7639100609756098,
            0.7639100609756098,
            1.0
          ],
          "glossinessFactor": 1.0,
          "specularFactor": [
            0.23951981707317074,
            0.23951981707317074,
            0.23951981707317074
          ]
        }
      },
      "name": "queen"
    }
  ],
  "meshes": [
    {
      "name": "Object_0",
      "primitives": [
        {
          "attributes": {
            "NORMAL": 1,
            "POSITION": 0,
            "TEXCOORD_0": 2
          },
          "indices": 3,
          "material": 1,
          "mode": 4
        }
      ]
    },
    {
      "name": "Object_1",
      "primitives": [
        {
          "attributes": {
            "NORMAL": 5,
            "POSITION": 4,
            "TEXCOORD_0": 6
          },
          "indices": 7,
          "material": 0,
          "mode": 4
        }
      ]
    },
    {
      "name": "Object_2",
      "primitives": [
        {
          "attributes": {
            "NORMAL": 9,
            "POSITION": 8,
            "TEXCOORD_0": 10
          },
          "indices": 11,
          "material": 0,
          "mode": 4
        }
      ]
    }
  ],
  "nodes": [
    {
      "children": [
        1
      ],
      "matrix": [
        1.0,
        0.0,
        0.0,
        0.0,
        0.0,
        2.220446049250313e-16,
        -1.0,
        0.0,
        0.0,
        1.0,
        2.220446049250313e-16,
        0.0,
        0.0,
        0.0,
        0.0,
        1.0
      ],
      "name": "Sketchfab_model"
    },
    {
      "children": [
        2,
        3,
        4
      ],
      "name": "chess.obj.cleaner.materialmerger.gles"
    },
    {
      "mesh": 0,
      "name": "Object_2"
    },
    {
      "mesh": 1,
      "name": "Object_3"
    },
    {
      "mesh": 2,
      "name": "Object_4"
    }
  ],
  "scene": 0,
  "scenes": [
    {
      "name": "Sketchfab_Scene",
      "nodes": [
        0
      ]
    }
  ]
}
